<svg xmlns="http://www.w3.org/2000/svg" width="512" height="512" viewBox="0 0 512 512">
  <rect width="512" height="512" fill="#0a0a0a" rx="64"/>
  <g transform="translate(96, 96) scale(3.2)">
    <!-- Cat ears -->
    <path d="M20 45 L30 15 L45 40 Z" fill="#7c3aed"/>
    <path d="M80 45 L70 15 L55 40 Z" fill="#7c3aed"/>
    <!-- Cat head -->
    <ellipse cx="50" cy="58" rx="35" ry="30" fill="#7c3aed"/>
    <!-- Inner ears -->
    <path d="M25 42 L32 22 L42 38 Z" fill="#9061f9" opacity="0.5"/>
    <path d="M75 42 L68 22 L58 38 Z" fill="#9061f9" opacity="0.5"/>
    <!-- Eyes -->
    <ellipse cx="38" cy="52" rx="6" ry="7" fill="#0a0a0a"/>
    <ellipse cx="62" cy="52" rx="6" ry="7" fill="#0a0a0a"/>
    <!-- Eye shine -->
    <circle cx="40" cy="50" r="2" fill="white"/>
    <circle cx="64" cy="50" r="2" fill="white"/>
    <!-- Nose -->
    <ellipse cx="50" cy="62" rx="4" ry="3" fill="#ff9999"/>
    <!-- Mouth -->
    <path d="M50 65 Q45 72 40 68" stroke="#0a0a0a" stroke-width="2" fill="none"/>
    <path d="M50 65 Q55 72 60 68" stroke="#0a0a0a" stroke-width="2" fill="none"/>
  </g>
</svg>
